<svg id="Capa_1" data-name="Capa 1" xmlns="http://www.w3.org/2000/svg" viewBox="0 0 1021 645"><defs><style>.cls-1{fill:none;stroke:#010101;stroke-miterlimit:10;stroke-width:8px;}</style></defs><title>logo_para_animacionFlexi</title><circle class="cls-1" cx="293" cy="262" r="141"/><path class="cls-1" d="M1174.72,699.31q21.78,2.18,44.28,2.19c207.94,0,376.5-142.6,376.5-318.5S1426.94,64.5,1219,64.5c-122.92,0-232.09,49.83-300.79,126.92-29.82,33.44-52,72-64.42,113.88a2.77,2.77,0,0,0-.12.41" transform="translate(-578.5 -60.5)"/><path class="cls-1" d="M855,462.54c-.33-1-.65-2.08-1-3.13" transform="translate(-578.5 -60.5)"/><path class="cls-1" d="M854,303.33l-.21,0a288.37,288.37,0,0,0-32.29-1.8,280.34,280.34,0,0,0-90.87,14.89C643.7,346.17,582.5,417.39,582.5,500.5c0,109.9,107,199,239,199a287.37,287.37,0,0,0,32.5-1.83" transform="translate(-578.5 -60.5)"/><line class="cls-1" x1="598" y1="639" x2="243" y2="639"/><line class="cls-1" x1="275.5" y1="242.5" x2="275.5" y2="638.5"/><line class="cls-1" x1="598" y1="639" x2="275" y2="243"/></svg>